<?xml version="1.0" encoding="UTF-8" standalone="no"?>
<svg
   xmlns:dc="http://purl.org/dc/elements/1.1/"
   xmlns:cc="http://creativecommons.org/ns#"
   xmlns:rdf="http://www.w3.org/1999/02/22-rdf-syntax-ns#"
   xmlns:svg="http://www.w3.org/2000/svg"
   xmlns="http://www.w3.org/2000/svg"
   viewBox="0 0 1066.6667 1066.6667"
   height="1066.6667"
   width="1066.6667"
   xml:space="preserve"
   id="svg2"
   version="1.1"><metadata
     id="metadata8"><rdf:RDF><cc:Work
         rdf:about=""><dc:format>image/svg+xml</dc:format><dc:type
           rdf:resource="http://purl.org/dc/dcmitype/StillImage" /></cc:Work></rdf:RDF></metadata><defs
     id="defs6"><clipPath
       id="clipPath18"
       clipPathUnits="userSpaceOnUse"><path
         id="path16"
         d="M 0,800 H 800 V 0 H 0 Z" /></clipPath></defs><g
     transform="matrix(1.3333333,0,0,-1.3333333,0,1066.6667)"
     id="g10"><g
       id="g12"><g
         clip-path="url(#clipPath18)"
         id="g14"><g
           transform="translate(482.3223,271.0459)"
           id="g20"><path
             id="path22"
             style="fill:#0086ff;fill-opacity:1;fill-rule:nonzero;stroke:none"
             d="m 0,0 c -0.363,12.742 -1.017,25.478 -1.604,38.213 -0.309,6.7 -0.732,13.395 -1.125,20.092 -0.083,1.406 -0.259,2.808 -0.401,4.307 -0.619,0 -1.141,0.007 -1.661,-0.001 -11.448,-0.166 -22.897,-0.3 -34.346,-0.509 -13.068,-0.239 -26.135,-0.626 -39.206,-0.786 -7.121,-0.087 -14.248,0.165 -21.372,0.268 -4.008,0.058 -8.015,0.121 -12.022,0.182 -16.424,0.249 -32.847,0.506 -49.271,0.737 -3.783,0.053 -7.567,0.008 -11.494,0.008 -0.032,-0.255 -0.069,-0.455 -0.081,-0.657 -0.355,-5.696 -0.701,-11.392 -1.06,-17.087 -0.415,-6.571 -0.914,-13.136 -1.24,-19.709 -0.321,-6.452 -0.509,-12.91 -0.687,-19.367 -0.284,-10.298 -0.25,-20.591 1.151,-30.833 0.955,-6.982 2.911,-13.695 6.362,-19.962 4.276,-7.763 10.13,-14.269 17.436,-19.647 6.815,-5.017 14.297,-8.736 22.605,-10.983 5.826,-1.577 11.79,-2.216 17.809,-2.498 7.253,-0.341 14.511,-0.92 21.762,-0.863 8.394,0.068 16.786,0.683 25.174,1.128 3.019,0.16 6.063,0.325 9.035,0.818 12.386,2.052 23.222,7.156 32.625,15.069 11.423,9.614 18.074,21.602 20.264,35.881 C -0.014,-17.505 0.25,-8.75 0,0" /></g><g
           transform="translate(467.3691,224.3262)"
           id="g24"><path
             id="path26"
             style="fill:#0086ff;fill-opacity:1;fill-rule:nonzero;stroke:none"
             d="m 0,0 c 1.18,3.419 2.51,6.636 3.384,9.972 1,3.815 1.672,7.723 2.32,11.619 0.197,1.187 0.575,1.43 1.712,1.48 10.658,0.468 19.529,4.521 25.423,13.674 7.656,11.89 2.547,26.671 -10.762,31.972 -5.074,2.02 -10.286,2.49 -15.799,1.841 -0.47,7.798 -0.938,15.554 -1.421,23.555 2.358,0.239 4.607,0.571 6.866,0.674 10.28,0.471 19.982,-1.645 28.729,-7.158 C 54.09,79.033 61.559,66.602 61.98,50.451 62.427,33.353 54.997,19.832 41.538,9.657 30.272,1.14 17.404,-2.049 3.376,-0.553 2.244,-0.433 1.126,-0.187 0,0" /></g><g
           transform="translate(440.7451,238.6533)"
           id="g28"><path
             id="path30"
             style="fill:#ffffff;fill-opacity:1;fill-rule:nonzero;stroke:none"
             d="m 0,0 c -0.819,3.689 -3.807,6.392 -7.743,6.97 -1.041,0.152 -2.094,0.227 -3.172,0.341 5.561,6.127 8.61,12.931 5.875,21.151 -2.747,8.256 -9.273,11.9 -17.498,13.323 0.292,0.378 0.497,0.668 0.726,0.937 4.247,4.975 8.039,10.266 10.978,16.125 2.04,4.062 3.644,8.27 3.123,12.949 -0.403,3.619 -1.976,6.56 -5.403,8.153 -2.99,1.39 -6.061,1.023 -9.07,-0.008 -8.192,-2.804 -14.234,-8.309 -18.987,-15.357 -1.443,-2.14 -2.668,-4.426 -4.071,-6.774 -0.032,0.392 -0.055,0.661 -0.077,0.928 -0.36,4.408 -0.562,8.837 -1.125,13.22 -0.556,4.332 -1.884,8.469 -4.348,12.162 -2.383,3.572 -6.246,4.534 -9.994,2.438 -1.869,-1.046 -3.298,-2.564 -4.409,-4.38 -2.634,-4.305 -3.274,-9.119 -3.444,-14.019 -0.222,-6.435 0.451,-12.776 2.372,-19.007 -0.787,-0.252 -1.573,-0.432 -2.301,-0.748 -10.056,-4.358 -15.82,-12.094 -17.199,-22.85 -0.952,-7.431 2.25,-13.496 7.671,-18.419 1.362,-1.238 3.001,-2.17 4.382,-3.15 -1.382,-1.089 -2.891,-2.106 -4.197,-3.339 -3.075,-2.907 -5.606,-6.217 -6.849,-10.347 -0.917,-3.045 0.54,-5.798 3.493,-6.478 1.081,-0.249 2.259,-0.365 3.35,-0.219 2.265,0.3 4.506,0.795 6.749,1.254 1.161,0.238 2.303,0.567 3.706,0.917 -0.811,-2.02 -1.514,-3.803 -2.249,-5.573 -0.119,-0.286 -0.344,-0.555 -0.582,-0.761 -3.546,-3.059 -5.578,-7.034 -6.733,-11.465 -1.095,-4.198 1.163,-7.627 5.416,-8.347 2.57,-0.436 4.943,0.301 7.119,1.685 2.606,1.66 4.507,3.981 5.948,6.331 3.084,-0.298 5.91,-0.783 8.737,-0.787 2.874,-0.003 5.749,0.465 8.713,0.736 0.223,-0.466 0.49,-1.047 0.778,-1.618 1.092,-2.167 2.577,-4.045 4.685,-5.245 4.466,-2.543 9.012,-2.271 13.295,0.354 4.276,2.622 4.747,7.311 1.298,10.991 -0.844,0.901 -1.851,1.648 -2.734,2.422 0.7,3.534 1.4,7.07 2.103,10.616 1.549,0.268 3.101,0.492 4.633,0.809 4.624,0.956 9.162,2.123 13.088,4.964 C -0.893,-6.904 0.73,-3.291 0,0" /></g><g
           transform="translate(422.8877,304.5439)"
           id="g32"><path
             id="path34"
             style="fill:#f9968a;fill-opacity:1;fill-rule:nonzero;stroke:none"
             d="M 0,0 C -0.478,2.992 -2.87,4.323 -5.599,3.008 -6.741,2.457 -7.86,1.729 -8.777,0.858 c -5.401,-5.127 -9.258,-11.2 -11.114,-18.478 -0.65,-2.553 0.629,-4.306 3.27,-4.354 2.372,-0.044 4.408,0.852 6.207,2.296 3.609,2.898 6.298,6.55 8.405,10.635 1.187,2.303 2.099,4.709 2.143,7.572 C 0.103,-1.122 0.088,-0.556 0,0" /></g><g
           transform="translate(383.6919,312.8525)"
           id="g36"><path
             id="path38"
             style="fill:#f9968a;fill-opacity:1;fill-rule:nonzero;stroke:none"
             d="m 0,0 c -1.609,-0.546 -2.338,-1.905 -2.907,-3.349 -1.019,-2.587 -1.3,-5.299 -1.328,-8.065 0.121,-1.565 0.156,-3.141 0.381,-4.69 0.464,-3.191 1.126,-6.333 2.976,-9.08 0.99,-1.47 2.188,-1.698 3.693,-0.731 1.78,1.142 2.738,2.86 3.151,4.83 0.462,2.198 0.822,4.437 0.985,6.676 0.296,4.061 -0.093,8.046 -2.106,11.712 C 3.62,-0.467 1.737,0.589 0,0" /></g><g
           transform="translate(394.3071,252.9346)"
           id="g40"><path
             id="path42"
             style="fill:#0086ff;fill-opacity:1;fill-rule:nonzero;stroke:none"
             d="M 0,0 C 0.183,0.014 0.366,0.027 0.549,0.041 0.819,1.614 1.09,3.188 1.378,4.863 H -1.059 C -0.685,3.146 -0.342,1.573 0,0 m 0.504,8.201 c 0.805,0 1.612,0.047 2.413,-0.012 C 4,8.11 4.977,7.148 4.825,6.098 4.471,3.644 4.036,1.194 3.489,-1.225 3.168,-2.642 2.198,-3.735 0.695,-3.873 c -1.451,-0.132 -2.461,0.837 -3.207,2.004 -1.643,2.572 -1.837,5.437 -1.575,8.366 0.074,0.828 0.585,1.418 1.468,1.517 1.036,0.116 2.078,0.18 3.117,0.267 C 0.5,8.255 0.502,8.228 0.504,8.201" /></g><g
           transform="translate(402.3213,264.7021)"
           id="g44"><path
             id="path46"
             style="fill:#0086ff;fill-opacity:1;fill-rule:nonzero;stroke:none"
             d="M 0,0 C 1.258,-0.677 2.216,-1.176 3.157,-1.704 4.026,-2.191 4.49,-2.895 4.076,-3.904 3.745,-4.71 2.651,-5.074 1.697,-4.582 0.276,-3.85 -1.186,-3.124 -2.436,-2.146 -4.41,-0.602 -4.147,1.588 -1.901,2.671 -0.389,3.4 1.208,3.993 2.823,4.448 3.317,4.587 4.271,4.222 4.516,3.799 4.763,3.372 4.568,2.465 4.241,1.994 3.912,1.519 3.203,1.275 2.623,1.013 1.87,0.671 1.079,0.411 0,0" /></g><g
           transform="translate(384.3105,266.5)"
           id="g48"><path
             id="path50"
             style="fill:#0086ff;fill-opacity:1;fill-rule:nonzero;stroke:none"
             d="M 0,0 C 0.083,2.4 1.524,3.526 3.35,2.535 3.704,2.343 4.049,1.968 4.201,1.596 4.838,0.031 4.338,-1.45 3.466,-2.711 2.591,-3.977 0.862,-3.6 0.38,-2.117 0.161,-1.441 0.121,-0.707 0,0" /></g><g
           transform="translate(394.3071,252.9346)"
           id="g52"><path
             id="path54"
             style="fill:#ffffff;fill-opacity:1;fill-rule:nonzero;stroke:none"
             d="M 0,0 C -0.342,1.573 -0.685,3.146 -1.059,4.863 H 1.378 C 1.09,3.188 0.819,1.614 0.549,0.041 0.366,0.027 0.183,0.014 0,0" /></g><g
           transform="translate(495.833,356.9346)"
           id="g56"><path
             id="path58"
             style="fill:#fc4211;fill-opacity:1;fill-rule:nonzero;stroke:none"
             d="m 0,0 c 0.627,-1.703 0.994,-3.566 1.929,-5.079 2.797,-4.527 6.343,-8.457 10.716,-11.515 3.241,-2.266 6.816,-2.917 10.617,-1.252 0.355,0.157 1.035,0.018 1.346,-0.243 1.382,-1.159 2.71,-2.387 4.005,-3.642 0.954,-0.925 1.996,-1.999 1.485,-3.419 -0.553,-1.535 -2.007,-1.979 -3.557,-1.998 -8.63,-0.111 -17.261,-0.201 -25.892,-0.327 -24.26,-0.355 -48.52,-0.744 -72.781,-1.081 -12.637,-0.175 -25.274,-0.43 -37.91,-0.361 -15.807,0.087 -31.612,0.486 -47.418,0.724 -23.909,0.36 -47.818,0.697 -71.727,1.044 -0.22,0.003 -0.447,-0.019 -0.659,0.025 -1.239,0.253 -2.467,0.641 -2.931,1.945 -0.444,1.248 0.345,2.232 1.153,3.035 1.623,1.615 3.332,3.141 5.012,4.697 9.562,8.855 19.12,17.715 28.689,26.561 13.448,12.433 26.911,24.85 40.358,37.284 7.596,7.025 15.169,14.075 22.76,21.105 8.915,8.256 17.957,16.38 26.699,24.816 3.234,3.122 6.679,3.014 10.475,2.268 0.608,-0.119 1.225,-0.538 1.693,-0.973 7.057,-6.57 14.09,-13.165 21.127,-19.757 0.063,-0.058 0.105,-0.14 0.213,-0.288 -1.606,-1.644 -2.777,-3.563 -3.183,-5.883 -0.802,-4.575 1.037,-8.262 4.005,-11.495 3.382,-3.684 7.475,-6.212 12.43,-7.254 0.408,-0.085 0.948,-0.476 1.068,-0.842 2.251,-6.853 6.215,-12.67 10.924,-18.014 8.576,-9.73 18.847,-17.257 30.417,-23.029 C -13.061,4.119 -6.939,1.812 -0.479,0.488 -0.223,0.437 0.023,0.332 0.273,0.251 0.183,0.168 0.091,0.084 0,0" /></g><g
           transform="translate(484.6543,420.4839)"
           id="g60"><path
             id="path62"
             style="fill:#d8883f;fill-opacity:1;fill-rule:nonzero;stroke:none"
             d="m 0,0 c -0.156,2.784 -1.512,5.119 -4.161,6.503 -2.847,1.487 -5.816,1.948 -8.772,0.148 -0.918,-0.56 -1.482,-1.291 -1.031,-2.4 0.386,-0.944 1.393,-1.162 2.618,-0.643 3.68,1.557 7.065,-0.259 7.733,-4.149 0.234,-1.364 0.957,-2.044 2.046,-1.925 C -0.593,-2.359 0.011,-1.495 0,0 m 27.115,-20.792 c 0.068,3.517 -1.007,5.908 -3.331,7.684 -1.945,1.486 -5.336,1.737 -6.945,0.559 -0.743,-0.544 -1.128,-1.257 -0.754,-2.167 0.378,-0.92 1.144,-1.142 2.064,-0.952 3.471,0.715 5.999,-1.858 5.246,-5.345 -0.139,-0.641 -0.364,-1.271 -0.43,-1.917 -0.101,-0.981 0.104,-1.827 1.274,-2.091 1.123,-0.252 1.817,0.297 2.133,1.248 0.384,1.154 0.595,2.366 0.743,2.981 m -31.223,-12.09 c -4.829,-0.018 -7.986,0.564 -10.487,1.986 -2.051,1.166 -3.502,2.762 -3.206,5.396 0.103,0.915 -0.324,1.652 -1.295,1.866 -0.947,0.208 -1.644,-0.207 -2.001,-1.09 -0.175,-0.438 -0.295,-0.931 -0.299,-1.4 -0.034,-3.442 1.606,-6.048 4.472,-7.698 5.713,-3.288 11.939,-3.149 18.207,-2.243 1.005,0.146 1.529,0.882 1.388,1.911 -0.135,0.985 -0.715,1.619 -1.773,1.571 -1.929,-0.088 -3.857,-0.229 -5.006,-0.299 m -1.386,28.691 c -0.262,0 -0.526,-0.011 -0.787,0.002 -5.988,0.296 -10.448,-4.923 -9.236,-10.808 1.785,-8.655 11.403,-15.999 20.286,-15.49 6.469,0.371 10.248,5.599 8.533,11.807 -2.185,7.909 -10.408,14.249 -18.796,14.489 m 36.455,-28.256 c -0.093,-0.535 -0.033,-1.224 0.236,-1.675 2.015,-3.367 3.733,-6.855 4.599,-10.706 0.538,-2.386 0.658,-4.793 -0.007,-7.182 -1.233,-4.432 -4.477,-6.669 -8.671,-7.778 -5.338,-1.409 -10.67,-0.814 -15.935,0.38 -11.849,2.686 -22.4,8.17 -32.158,15.269 -7.379,5.369 -13.967,11.561 -19.169,19.116 -2.853,4.145 -5.217,8.523 -6.141,13.565 -1.397,7.624 2.291,13.075 9.93,14.471 1.634,0.3 3.31,0.378 4.967,0.551 0.218,0.023 0.48,0.087 0.655,-10e-4 2.251,-1.137 3.836,0.435 5.536,1.388 2.943,1.65 5.725,3.636 8.78,5.03 8.66,3.953 17.502,3.755 26.233,0.252 9.693,-3.889 16.584,-10.727 20.492,-20.456 1.501,-3.737 2.27,-7.643 2.217,-11.69 0.128,-0.025 -0.954,-7.04 -1.564,-10.534" /></g><g
           transform="translate(520.6367,394.1016)"
           id="g64"><path
             id="path66"
             style="fill:#d8883f;fill-opacity:1;fill-rule:nonzero;stroke:none"
             d="m 0,0 c 0.108,1.84 0.211,3.593 0.314,5.345 1.376,0.691 2.843,1.28 4.157,2.111 6.619,4.186 6.335,12.641 -0.558,16.356 -3.002,1.618 -6.19,2.467 -9.649,1.695 -0.296,-0.066 -0.782,0.086 -0.975,0.312 -0.625,0.729 -1.153,1.539 -1.77,2.389 1.28,1.642 3.08,2.17 4.982,2.281 6.431,0.374 11.428,-2.285 15.133,-7.45 2.422,-3.375 3.867,-7.166 4.398,-11.284 C 16.796,5.827 13.488,1.365 7.256,-0.083 4.883,-0.634 2.489,-0.797 0,0" /></g><g
           transform="translate(477.8115,436.7773)"
           id="g68"><path
             id="path70"
             style="fill:#d8883f;fill-opacity:1;fill-rule:nonzero;stroke:none"
             d="m 0,0 c -1.528,-0.255 -2.937,-0.491 -4.435,-0.741 0.262,3.348 -1.81,5.112 -4.359,6.471 -5.199,2.772 -11.775,2.11 -15.905,-1.63 -3.689,-3.342 -4.797,-7.519 -3.711,-12.327 0.076,-0.339 0.157,-0.677 0.23,-1.017 0.007,-0.033 -0.025,-0.075 -0.036,-0.106 -1.662,-0.364 -3.32,-0.727 -5.086,-1.114 0.11,3.504 0.697,6.902 1.859,10.186 1.685,4.763 4.146,9.037 8.247,12.155 6.504,4.948 14.203,3.807 19.072,-2.758 C -2.133,6.434 -0.825,3.451 0,0" /></g><g
           transform="translate(499.7578,356.376)"
           id="g72"><path
             id="path74"
             style="fill:#d8883f;fill-opacity:1;fill-rule:nonzero;stroke:none"
             d="m 0,0 c 2.439,0 4.722,-0.154 6.975,0.042 2.43,0.213 4.831,0.774 7.251,1.14 0.571,0.086 1.299,0.214 1.734,-0.047 2.867,-1.722 5.144,-3.988 5.976,-7.366 0.656,-2.668 -0.581,-4.695 -2.389,-6.457 -1.714,-1.667 -3.765,-2.196 -6.076,-1.541 -2.181,0.62 -3.978,1.917 -5.458,3.557 C 5.604,-8.005 3.294,-5.243 1.037,-2.445 0.495,-1.774 0.327,-0.802 0,0" /></g><g
           transform="translate(434.4316,409.7261)"
           id="g76"><path
             id="path78"
             style="fill:#d8883f;fill-opacity:1;fill-rule:nonzero;stroke:none"
             d="m 0,0 c -4.036,1.01 -7.103,3.199 -9.765,6.024 -1.436,1.524 -2.516,3.261 -2.981,5.346 -1.134,5.086 3.08,9.158 8.087,7.759 2.736,-0.765 5.107,-2.151 6.713,-4.573 C 2.923,13.244 3.213,11.948 2.16,10.429 0.601,8.178 -0.009,5.562 0,2.815 0.003,1.941 0,1.066 0,0" /></g><g
           transform="translate(469.8242,435.4946)"
           id="g80"><path
             id="path82"
             style="fill:#af6c35;fill-opacity:1;fill-rule:nonzero;stroke:none"
             d="m 0,0 c -4.438,-2.603 -8.577,-5.139 -12.825,-7.477 -2.212,-1.216 -3.662,-0.546 -4.127,1.658 -1.102,5.222 2.589,10.468 7.92,10.733 1.876,0.093 3.857,-0.213 5.657,-0.77 C -1.333,3.512 0.608,2.432 0,0" /></g><g
           transform="translate(520.8857,403.5376)"
           id="g84"><path
             id="path86"
             style="fill:#af6c35;fill-opacity:1;fill-rule:nonzero;stroke:none"
             d="m 0,0 c -1.44,4.301 -2.847,8.499 -4.315,12.885 0.82,-0.095 1.809,-0.025 2.65,-0.345 1.659,-0.634 3.396,-1.264 4.811,-2.294 C 5.745,8.354 6.04,5.593 4.193,2.951 3.1,1.385 1.518,0.511 0,0" /></g><g
           transform="translate(494.7559,399.4268)"
           id="g88"><path
             id="path90"
             style="fill:#4c2c14;fill-opacity:1;fill-rule:nonzero;stroke:none"
             d="m 0,0 c -0.048,0.26 -0.118,0.915 -0.288,1.542 -1.095,4.046 -3.779,6.89 -7.186,9.065 -3.276,2.092 -6.775,3.538 -10.812,2.433 -2.873,-0.787 -4.434,-3.351 -3.806,-6.278 1.412,-6.575 9.15,-12.718 15.9,-12.622 C -2.299,-5.805 0.01,-3.767 0,0 M -15.596,16.866 C -7.208,16.626 1.016,10.287 3.2,2.377 4.915,-3.831 1.137,-9.059 -5.333,-9.43 c -8.883,-0.508 -18.501,6.835 -20.285,15.491 -1.213,5.884 3.248,11.103 9.235,10.807 0.262,-0.013 0.526,-0.002 0.787,-0.002" /></g><g
           transform="translate(480.5459,387.6016)"
           id="g92"><path
             id="path94"
             style="fill:#4c2c14;fill-opacity:1;fill-rule:nonzero;stroke:none"
             d="m 0,0 c 1.149,0.07 3.077,0.211 5.007,0.3 1.057,0.048 1.638,-0.587 1.772,-1.571 0.141,-1.03 -0.383,-1.766 -1.387,-1.912 -6.269,-0.906 -12.495,-1.045 -18.207,2.244 -2.867,1.649 -4.506,4.255 -4.473,7.698 0.005,0.469 0.124,0.962 0.3,1.399 0.356,0.883 1.053,1.298 2.001,1.09 0.97,-0.214 1.397,-0.951 1.295,-1.865 -0.296,-2.635 1.154,-4.231 3.206,-5.397 C -7.985,0.564 -4.828,-0.018 0,0" /></g><g
           transform="translate(511.7695,399.6919)"
           id="g96"><path
             id="path98"
             style="fill:#4c2c14;fill-opacity:1;fill-rule:nonzero;stroke:none"
             d="m 0,0 c -0.148,-0.615 -0.359,-1.827 -0.743,-2.981 -0.317,-0.951 -1.01,-1.5 -2.133,-1.248 -1.17,0.264 -1.375,1.11 -1.274,2.091 0.066,0.646 0.291,1.276 0.429,1.917 0.754,3.487 -1.774,6.06 -5.245,5.345 -0.921,-0.19 -1.686,0.032 -2.064,0.952 -0.374,0.91 0.01,1.623 0.754,2.167 1.609,1.178 5,0.927 6.945,-0.559 C -1.007,5.908 0.067,3.517 0,0" /></g><g
           transform="translate(484.6543,420.4839)"
           id="g100"><path
             id="path102"
             style="fill:#4c2c14;fill-opacity:1;fill-rule:nonzero;stroke:none"
             d="m 0,0 c 0.011,-1.495 -0.593,-2.359 -1.567,-2.466 -1.089,-0.119 -1.812,0.561 -2.046,1.925 -0.668,3.89 -4.053,5.706 -7.733,4.149 -1.225,-0.519 -2.232,-0.301 -2.618,0.643 -0.451,1.109 0.113,1.84 1.031,2.4 2.956,1.8 5.925,1.339 8.772,-0.148 C -1.512,5.119 -0.156,2.784 0,0" /></g><g
           transform="translate(494.7559,399.4268)"
           id="g104"><path
             id="path106"
             style="fill:#af6c35;fill-opacity:1;fill-rule:nonzero;stroke:none"
             d="m 0,0 c 0.01,-3.767 -2.299,-5.805 -6.192,-5.86 -6.75,-0.096 -14.488,6.047 -15.9,12.622 -0.628,2.927 0.933,5.491 3.806,6.278 4.037,1.105 7.536,-0.341 10.812,-2.433 C -4.067,8.432 -1.383,5.588 -0.288,1.542 -0.118,0.915 -0.048,0.26 0,0" /></g><g
           transform="translate(402.1621,521.9575)"
           id="g108"><path
             id="path110"
             style="fill:#3cee2a;fill-opacity:1;fill-rule:nonzero;stroke:none"
             d="m 0,0 5.354,-16.479 c 0.941,-2.894 3.637,-4.853 6.679,-4.853 H 29.36 c 6.804,0 9.632,-8.705 4.128,-12.704 L 19.471,-44.221 c -2.462,-1.788 -3.492,-4.958 -2.552,-7.851 l 5.354,-16.48 c 2.103,-6.47 -5.302,-11.85 -10.806,-7.851 l -14.018,10.184 c -2.462,1.789 -5.795,1.789 -8.256,0 l -14.018,-10.184 c -5.504,-3.999 -12.909,1.381 -10.807,7.851 l 5.354,16.48 c 0.941,2.893 -0.09,6.063 -2.551,7.851 l -14.018,10.185 c -5.504,3.999 -2.675,12.704 4.128,12.704 h 17.327 c 3.043,0 5.739,1.959 6.679,4.853 L -13.358,0 C -11.256,6.47 -2.103,6.47 0,0" /></g><g
           transform="translate(164.1519,414.4453)"
           id="g112"><path
             id="path114"
             style="fill:#0086ff;fill-opacity:1;fill-rule:nonzero;stroke:none"
             d="m 0,0 c -1.972,0.745 -3.875,0.442 -5.506,-0.883 -1.432,-1.162 -2.643,-3.087 -3.702,-5.88 l -3.509,-9.257 -33.433,12.675 c -3.393,1.283 -6.055,1.454 -8.138,0.514 -1.54,-0.696 -2.673,-1.97 -3.359,-3.788 -0.837,-2.203 -0.642,-4.297 0.56,-6.053 1.118,-1.629 3.039,-2.943 5.875,-4.017 l 36.16,-13.711 c 1.538,-0.581 2.976,-0.868 4.301,-0.868 3.663,0 6.459,2.194 8.071,6.438 l 5.167,13.633 C 5.293,-3.784 2.682,-1.016 0,0" /></g><g
           transform="translate(169.5405,431.2236)"
           id="g116"><path
             id="path118"
             style="fill:#ff2b1e;fill-opacity:1;fill-rule:nonzero;stroke:none"
             d="m 0,0 -22.958,11.728 c -7.056,3.605 -10.263,0.983 -11.716,-1.855 V 9.871 c -1.448,-2.837 -1.687,-6.975 5.368,-10.579 l 22.958,-11.728 c 2.29,-1.17 4.259,-1.745 5.992,-1.745 0.302,0 0.599,0.018 0.89,0.052 2.11,0.259 3.779,1.487 4.834,3.55 1.052,2.061 1.067,4.132 0.042,5.99 C 4.466,-2.876 2.697,-1.376 0,0" /></g><g
           transform="translate(123.1445,438.7285)"
           id="g120"><path
             id="path122"
             style="fill:#ff2b1e;fill-opacity:1;fill-rule:nonzero;stroke:none"
             d="m 0,0 c 1.325,-0.678 2.568,-1.018 3.723,-1.018 0.812,0 1.576,0.17 2.292,0.507 1.595,0.749 2.883,2.069 3.831,3.925 0.947,1.853 1.256,3.667 0.911,5.382 -0.366,1.856 -1.685,3.372 -3.918,4.508 C 4.613,14.445 2.607,14.626 0.89,13.834 -0.698,13.104 -1.993,11.782 -2.952,9.905 -3.911,8.029 -4.235,6.217 -3.917,4.535 -3.582,2.681 -2.266,1.155 0,0" /></g><g
           transform="translate(188.7852,458.6099)"
           id="g124"><path
             id="path126"
             style="fill:#faaf15;fill-opacity:1;fill-rule:nonzero;stroke:none"
             d="M 0,0 C -3.243,1.089 -6.231,-1.095 -8.928,-6.45 L -8.94,-6.472 c -0.123,-0.252 -0.216,-0.279 -0.255,-0.291 -0.135,-0.031 -0.869,-0.148 -2.797,1.079 l -15.929,10.123 0.329,0.521 c 4.247,6.691 2.503,9.774 0.291,11.181 -1.154,0.733 -2.43,0.968 -3.696,0.69 -2.109,-0.47 -4.171,-2.333 -6.306,-5.696 l -0.335,-0.527 c -5.048,3.07 -8.482,3.237 -10.23,0.507 -1.642,-2.593 -0.773,-6.018 2.59,-10.187 0.749,-0.916 1.073,-1.384 1.211,-1.598 -0.111,-4.695 0.713,-7.443 2.587,-8.636 1.187,-0.751 3.467,-1.404 6.03,1.987 l 16.092,-10.231 c 3.62,-2.303 6.77,-3.44 9.551,-3.44 0.825,0 1.616,0.1 2.38,0.298 3.24,0.849 5.991,3.019 8.177,6.45 1.426,2.246 1.795,3.069 1.891,3.534 C 4.226,-4.731 3.342,-1.13 0,0" /></g><g
           transform="translate(207.1187,481.4121)"
           id="g128"><path
             id="path130"
             style="fill:#0086ff;fill-opacity:1;fill-rule:nonzero;stroke:none"
             d="M 0,0 C -3.09,1.414 -6.312,-0.415 -9.579,-5.441 L -9.591,-5.46 c -0.15,-0.237 -0.245,-0.254 -0.287,-0.261 -0.142,-0.023 -0.875,-0.056 -2.665,1.378 l -14.725,11.806 0.387,0.481 c 4.954,6.185 3.551,9.44 1.504,11.082 -2.041,1.641 -5.533,2.296 -10.487,-3.884 l -0.386,-0.483 c -4.688,3.6 -8.083,4.144 -10.113,1.62 -1.918,-2.396 -1.429,-5.897 1.46,-10.41 0.641,-0.991 0.914,-1.49 1.025,-1.719 -0.623,-4.655 -0.102,-7.478 1.63,-8.864 0.783,-0.633 1.706,-0.907 2.647,-0.811 1.169,0.126 2.341,0.821 3.566,2.124 l 14.878,-11.932 c 3.78,-3.032 7.128,-4.52 10.188,-4.52 0.449,0 0.893,0.032 1.33,0.096 3.312,0.487 6.283,2.344 8.83,5.518 1.75,2.178 2.134,2.91 2.26,3.304 C 3.689,-5.168 3.204,-1.489 0,0" /></g><g
           transform="translate(217.6421,494.9175)"
           id="g132"><path
             id="path134"
             style="fill:#5aef21;fill-opacity:1;fill-rule:nonzero;stroke:none"
             d="m 0,0 -30.295,29.378 c -5.698,5.522 -9.535,3.954 -11.747,1.666 -1.612,-1.661 -2.235,-3.64 -1.801,-5.718 0.399,-1.911 1.652,-3.864 3.825,-5.971 l 30.292,-29.377 c 2.173,-2.109 4.166,-3.299 6.087,-3.641 0.372,-0.066 0.738,-0.097 1.1,-0.097 1.676,0 3.237,0.704 4.562,2.071 1.612,1.662 2.236,3.64 1.801,5.719 C 3.425,-4.06 2.173,-2.107 0,0" /></g><g
           transform="translate(220.3003,530.6543)"
           id="g136"><path
             id="path138"
             style="fill:#faaf15;fill-opacity:1;fill-rule:nonzero;stroke:none"
             d="M 0,0 0.003,0.003 C 1.031,0.842 2.038,1.259 3.057,1.259 3.438,1.259 3.821,1.2 4.208,1.083 5.533,0.686 6.792,-0.099 7.945,-1.24 L -0.417,-8.061 C -1.42,-6.447 -1.906,-4.973 -1.861,-3.669 -1.807,-2.176 -1.199,-0.976 0,0 m 29.273,-9.777 c -2.949,1.921 -6.225,0.217 -9.695,-5.022 -0.081,-0.093 -0.504,-0.532 -2.656,-2.294 -2.011,-1.638 -3.941,-2.285 -5.934,-1.975 -1.739,0.265 -3.411,1.184 -4.958,2.696 l 11.468,9.361 c 2.829,2.305 4.313,4.528 4.543,6.795 0.168,1.665 -0.363,3.258 -1.57,4.737 -4.016,4.921 -8.521,7.778 -13.388,8.488 -4.919,0.715 -9.687,-0.777 -14.177,-4.439 -4.7,-3.838 -7.166,-8.495 -7.331,-13.842 -0.165,-5.265 2.191,-10.926 7.004,-16.825 4.667,-5.721 9.759,-8.958 15.129,-9.619 0.744,-0.093 1.487,-0.138 2.228,-0.138 4.63,0 9.18,1.8 13.55,5.368 2.355,1.917 4.127,3.869 5.251,5.784 3.308,5.431 3.476,9.115 0.536,10.925" /></g><g
           transform="translate(288.3208,549.0747)"
           id="g140"><path
             id="path142"
             style="fill:#ff2b1e;fill-opacity:1;fill-rule:nonzero;stroke:none"
             d="m 0,0 c -0.054,-1.842 -0.788,-3.054 -2.311,-3.81 -1.978,-0.98 -3.561,-0.948 -4.996,0.08 -1.688,1.206 -3.42,3.579 -5.149,7.051 l -0.671,1.353 c -1.583,3.301 -2.323,5.937 -2.198,7.838 0.066,1.028 0.447,2.538 2.941,3.779 1.546,0.771 2.973,0.632 4.489,-0.437 1.76,-1.242 3.549,-3.678 5.317,-7.243 C -0.803,5.044 0.063,2.147 0,0 m -1.187,28.202 c -4.451,2.384 -8.961,2.481 -13.397,0.276 -2.599,-1.292 -4.517,-2.957 -5.704,-4.947 -0.926,-1.544 -1.513,-2.897 -1.78,-4.102 -3.555,2.96 -6.417,2.263 -8.302,1.014 -3.057,-2.114 -3.255,-5.897 -0.6,-11.242 l 19.836,-39.924 c 1.627,-3.278 3.464,-5.225 5.619,-5.95 0.606,-0.202 1.22,-0.305 1.847,-0.305 0.998,0 2.02,0.258 3.057,0.774 1.675,0.831 2.787,2.045 3.305,3.607 0.717,2.165 0.249,4.826 -1.426,8.12 l -3.309,6.666 c -0.597,1.201 -1.184,2.325 -1.772,3.373 0.696,-0.14 1.52,-0.259 2.488,-0.354 2.287,-0.224 4.769,0.31 7.355,1.594 4.385,2.176 7.032,5.832 7.862,10.87 0.794,4.847 -0.459,10.63 -3.723,17.186 -3.252,6.558 -7.073,11.048 -11.356,13.344" /></g><g
           transform="translate(307.3169,597.7559)"
           id="g144"><path
             id="path146"
             style="fill:#faaf15;fill-opacity:1;fill-rule:nonzero;stroke:none"
             d="M 0,0 C -1.055,2.835 -2.341,4.764 -3.933,5.898 -5.659,7.132 -7.715,7.361 -9.894,6.549 -12.873,5.438 -15.846,2.554 -13.086,-4.874 L 1.642,-44.422 c 2.041,-5.476 4.829,-7.042 7.346,-7.042 0.899,0 1.762,0.199 2.548,0.49 2.982,1.112 5.961,3.995 3.198,11.424 z" /></g><g
           transform="translate(346.9961,567.6133)"
           id="g148"><path
             id="path150"
             style="fill:#faaf15;fill-opacity:1;fill-rule:nonzero;stroke:none"
             d="m 0,0 c -0.866,-1.416 -2.086,-2.287 -3.734,-2.663 -1.077,-0.246 -1.936,-0.168 -2.653,0.242 -0.656,0.371 -1.142,1.221 -1.442,2.522 -0.356,1.567 -0.173,2.835 0.564,3.877 0.53,0.753 1.852,1.834 5.164,2.706 L 0.129,7.3 0.563,5.406 C 1.07,3.195 0.887,1.428 0,0 m 11.431,20.171 c -1.205,5.254 -3.612,8.945 -7.151,10.967 -3.492,2.012 -7.961,2.423 -13.262,1.203 -2.863,-0.656 -5.554,-1.617 -7.997,-2.858 -2.497,-1.272 -4.238,-2.363 -5.326,-3.34 -1.172,-1.058 -1.939,-3.065 1.082,-6.613 2.365,-2.786 6.118,-2.524 11.087,0.744 0.048,0.027 0.521,0.278 2.712,0.777 2.065,0.476 4.319,0.379 5.302,-3.901 l 0.078,-0.34 -4.948,-1.33 c -5.725,-1.531 -9.888,-3.809 -12.376,-6.77 -2.601,-3.108 -3.362,-7.121 -2.259,-11.927 0.992,-4.349 2.967,-7.588 5.871,-9.629 2.059,-1.441 4.385,-2.165 6.947,-2.165 1.118,0 2.281,0.138 3.483,0.413 3.285,0.753 5.839,1.935 7.586,3.509 1.511,1.351 2.625,2.763 3.312,4.175 2.517,-3.23 5.107,-4.322 7.705,-3.249 3.087,1.275 3.981,4.861 2.656,10.662 z" /></g><g
           transform="translate(397.6421,606.7925)"
           id="g152"><path
             id="path154"
             style="fill:#5aef21;fill-opacity:1;fill-rule:nonzero;stroke:none"
             d="m 0,0 c -1.874,0.422 -3.534,0.181 -4.939,-0.716 -1.925,-1.225 -3.237,-3.556 -4.022,-7.146 l -3.354,-16.11 c -0.075,-0.374 -0.147,-0.741 -0.216,-1.104 -0.432,1.16 -1.025,2.699 -1.783,4.611 l -4.652,11.969 c -1.34,3.434 -3.006,5.53 -5.095,6.412 -1.526,0.647 -3.195,0.593 -4.928,-0.139 -1.786,-0.719 -3.009,-1.865 -3.635,-3.409 -0.851,-2.108 -0.534,-4.777 0.971,-8.161 l 12.813,-28.746 c 0.548,-1.242 0.68,-2.424 0.399,-3.631 -0.489,-2.221 -1.197,-3.94 -2.099,-5.104 -0.761,-0.978 -2.011,-1.472 -3.815,-1.505 -1.487,-0.027 -4.933,-0.673 -4.9,-6.085 0.054,-2.642 1.717,-5.753 9.243,-5.753 0.15,0 0.303,0 0.455,0.003 2.599,0.01 5.335,1.35 8.132,3.98 2.718,2.556 4.759,6.399 6.069,11.425 l 9.795,38.184 c 0.926,3.568 0.809,6.25 -0.357,8.203 C 3.231,-1.401 1.867,-0.453 0,0" /></g><g
           transform="translate(437.7471,604.1772)"
           id="g156"><path
             id="path158"
             style="fill:#0086ff;fill-opacity:1;fill-rule:nonzero;stroke:none"
             d="M 0,0 C -0.807,1.052 -1.996,1.678 -3.537,1.86 H -3.54 c -3.009,0.352 -5.686,-0.307 -7.969,-1.945 -1.529,-1.094 -2.698,-2.128 -3.531,-3.119 -1.184,4.112 -3.362,6.075 -6.345,6.026 -3.614,-0.192 -5.632,-3.352 -5.988,-9.398 l -1.528,-26.041 c -0.216,-3.657 0.413,-6.262 1.923,-7.962 1.097,-1.233 2.605,-1.915 4.481,-2.023 0.171,-0.01 0.339,-0.015 0.507,-0.015 1.654,0 3.059,0.504 4.183,1.502 1.701,1.511 2.629,4.022 2.842,7.676 l 0.779,13.252 c 0.195,3.246 1.145,5.537 2.827,6.815 1.753,1.335 3.701,1.868 5.973,1.623 2.047,-0.212 5.574,0.291 6.348,6.14 C 1.321,-3.15 1.007,-1.316 0,0" /></g><g
           transform="translate(464.7539,577.9448)"
           id="g160"><path
             id="path162"
             style="fill:#f15a24;fill-opacity:1;fill-rule:nonzero;stroke:none"
             d="m 0,0 c -0.755,-3.891 -1.849,-6.727 -3.249,-8.431 -1.21,-1.473 -2.748,-1.968 -4.792,-1.57 -2.077,0.404 -3.327,1.452 -3.938,3.299 -0.705,2.101 -0.674,5.138 0.083,9.022 l 0.003,0.003 c 0.753,3.881 1.85,6.682 3.255,8.326 0.945,1.104 2.08,1.639 3.513,1.639 0.426,0 0.878,-0.046 1.358,-0.141 2.092,-0.406 3.335,-1.423 3.912,-3.199 C 0.81,6.895 0.762,3.886 0,0 m 8.377,19.219 c -2.643,2.345 -5.919,3.911 -9.74,4.656 -6.406,1.246 -11.815,0.143 -16.065,-3.289 -4.166,-3.368 -6.968,-8.605 -8.329,-15.566 -0.879,-4.522 -0.863,-8.69 0.039,-12.386 0.92,-3.772 2.703,-6.947 5.305,-9.433 2.593,-2.486 5.934,-4.142 9.933,-4.922 1.632,-0.317 3.207,-0.478 4.713,-0.478 2.453,0 4.727,0.423 6.801,1.264 3.351,1.353 6.162,3.638 8.351,6.79 2.145,3.087 3.677,6.934 4.553,11.433 0.928,4.76 0.911,9.044 -0.061,12.73 -0.992,3.74 -2.841,6.836 -5.5,9.201" /></g><g
           transform="translate(507.835,564.9131)"
           id="g164"><path
             id="path166"
             style="fill:#5aef21;fill-opacity:1;fill-rule:nonzero;stroke:none"
             d="m 0,0 c -1.363,-3.721 -2.895,-6.348 -4.546,-7.806 -1.43,-1.262 -3.016,-1.511 -4.984,-0.787 -1.982,0.728 -3.049,1.962 -3.364,3.882 -0.356,2.189 0.154,5.182 1.514,8.894 1.373,3.717 2.901,6.31 4.547,7.704 1.436,1.219 3.039,1.446 5.05,0.707 C 0.216,11.86 1.283,10.658 1.568,8.812 1.897,6.682 1.37,3.716 0,0 m 15.292,7.685 c -0.381,3.848 -1.715,7.199 -3.966,9.958 -2.232,2.732 -5.218,4.8 -8.874,6.146 -6.132,2.253 -11.638,2.023 -16.38,-0.693 -4.654,-2.66 -8.251,-7.384 -10.693,-14.04 -1.592,-4.313 -2.242,-8.43 -1.937,-12.235 0.303,-3.866 1.556,-7.284 3.729,-10.16 2.167,-2.864 5.203,-5.029 9.027,-6.436 2.683,-0.985 5.264,-1.478 7.706,-1.478 1.304,0 2.569,0.14 3.791,0.421 3.526,0.807 6.66,2.614 9.325,5.373 2.598,2.699 4.72,6.251 6.306,10.562 1.678,4.572 2.341,8.805 1.966,12.582" /></g><g
           transform="translate(580.0186,552.7715)"
           id="g168"><path
             id="path170"
             style="fill:#faaf15;fill-opacity:1;fill-rule:nonzero;stroke:none"
             d="m 0,0 c -2.188,1.364 -4.531,2.182 -6.959,2.432 -2.353,0.249 -4.205,0.042 -5.686,-0.658 0.021,1.406 -0.492,3.044 -1.558,4.991 -1.16,2.101 -3.067,3.987 -5.665,5.606 -2.236,1.389 -4.615,2.218 -7.079,2.462 -1.969,0.195 -3.597,0.06 -4.901,-0.403 0.63,4.247 -1.337,6.231 -3.297,7.168 -3.302,1.489 -6.582,-0.348 -9.77,-5.473 L -58.702,-6.018 c -4.187,-6.726 -1.846,-10.147 0.857,-11.833 2.706,-1.686 6.807,-2.27 10.999,4.451 l 6.204,9.968 c 2.248,3.615 4.368,6.126 6.307,7.463 1.592,1.106 3.204,1.076 5.065,-0.087 1.091,-0.678 1.568,-1.527 1.549,-2.754 -0.023,-1.469 -0.763,-3.385 -2.202,-5.695 l -8.723,-14.005 c -4.183,-6.73 -1.842,-10.149 0.858,-11.83 1.598,-0.995 3.219,-1.306 4.835,-0.935 2.215,0.515 4.231,2.277 6.165,5.386 l 6.893,11.071 c 2.02,3.245 3.977,5.444 5.809,6.534 1.562,0.926 3.113,0.841 4.879,-0.261 0.908,-0.566 3.321,-2.069 -0.653,-8.452 l -8.722,-14.005 c -4.184,-6.732 -1.808,-10.171 0.923,-11.872 1.011,-0.629 2.215,-1.106 3.546,-1.106 2.236,10e-4 4.825,1.343 7.454,5.56 l 10.22,16.409 c 2.973,4.786 4.163,9.045 3.528,12.657 C 6.444,-5.673 4.059,-2.526 0,0" /></g><g
           transform="translate(611.2646,475.5005)"
           id="g172"><path
             id="path174"
             style="fill:#f15a24;fill-opacity:1;fill-rule:nonzero;stroke:none"
             d="m 0,0 c 0.926,4.253 -1.182,6.014 -2.519,6.685 -1.512,0.761 -2.924,1.831 -4.195,3.179 -1.435,1.516 -1.933,3.187 -1.525,5.105 0.452,2.112 2.122,4.544 4.96,7.228 8.248,7.803 11.626,4.236 12.731,3.063 0.827,-0.874 1.706,-2.36 2.614,-4.422 0.612,-1.382 1.526,-2.311 2.712,-2.761 1.382,-0.515 3.036,-0.343 4.928,0.528 2.49,1.124 4.786,3.984 1.556,11.249 -0.216,0.464 -0.762,1.258 -3.268,3.912 -4.343,4.583 -9.174,6.809 -14.691,6.687 -5.345,-0.143 -10.844,-2.852 -16.341,-8.054 -5.644,-5.339 -8.716,-10.577 -9.129,-15.568 -0.414,-5.055 1.576,-9.94 5.91,-14.52 1.798,-1.903 3.578,-3.403 5.29,-4.46 1.744,-1.073 3.645,-1.827 5.655,-2.24 0.351,-0.072 0.678,-0.104 0.978,-0.104 0.965,0 1.678,0.318 2.143,0.625 C -1.092,-3.137 -0.372,-1.864 0,0" /></g><g
           transform="translate(634.7588,460.1323)"
           id="g176"><path
             id="path178"
             style="fill:#5aef21;fill-opacity:1;fill-rule:nonzero;stroke:none"
             d="m 0,0 -1.595,-1.121 c -1.851,-1.302 -3.554,-1.799 -5.209,-1.527 -1.642,0.272 -2.91,1.073 -3.878,2.449 -0.632,0.896 -0.89,1.729 -0.782,2.552 0.093,0.749 0.695,1.518 1.786,2.285 1.001,0.703 1.963,1.051 2.913,1.051 0.297,0 0.591,-0.033 0.888,-0.101 C -4.592,5.294 -3.054,4 -1.415,1.83 Z m 16.187,-5.588 c 4.401,3.093 6.906,6.716 7.449,10.769 0.536,4.001 -0.78,8.285 -3.908,12.733 -1.679,2.387 -3.588,4.512 -5.671,6.318 -2.114,1.824 -3.783,3.021 -5.111,3.664 C 7.514,28.59 5.371,28.535 3.231,24.393 1.553,21.148 3.213,17.779 8.119,14.412 8.161,14.379 8.575,14.036 9.867,12.199 11.09,10.46 11.854,8.343 8.264,5.813 L 7.976,5.612 4.87,9.69 c -3.635,4.788 -7.217,7.694 -10.945,8.887 -3.846,1.236 -7.856,0.423 -11.893,-2.418 -3.656,-2.57 -5.91,-5.627 -6.692,-9.082 -0.801,-3.522 -0.019,-6.993 2.322,-10.315 1.942,-2.756 4.001,-4.673 6.123,-5.701 1.828,-0.886 3.561,-1.381 5.116,-1.476 -2.038,-3.556 -2.07,-6.366 -0.089,-8.366 0.959,-0.971 2.14,-1.457 3.531,-1.457 2.013,0 4.469,1.013 7.345,3.037 z" /></g><g
           transform="translate(693.2061,442.1616)"
           id="g180"><path
             id="path182"
             style="fill:#f15a24;fill-opacity:1;fill-rule:nonzero;stroke:none"
             d="m 0,0 c -0.908,2.975 -2.104,5.87 -3.552,8.6 -0.797,1.518 -2.754,2.789 -6.162,3.997 -3.401,1.2 -7.558,0.475 -12.711,-2.241 l -0.82,-0.429 c -0.234,-0.125 -0.414,-0.212 -0.546,-0.27 -3.666,2.427 -6.456,3.084 -8.512,1.994 -1.325,-0.695 -2.044,-1.948 -2.026,-3.526 0.009,-1.016 0.314,-2.185 0.935,-3.553 L -54.533,-6.574 c -7.007,-3.694 -6.71,-7.829 -5.227,-10.649 0.959,-1.818 2.65,-3.537 5.611,-3.537 1.628,0 3.641,0.522 6.132,1.834 l 21.115,11.136 c 3.548,-6.264 6.915,-6.243 9.162,-5.061 v 0.002 c 2.236,1.182 4.166,3.949 0.998,10.417 l 0.759,0.4 c 1.295,0.683 2.419,1.016 3.257,0.947 0.441,-0.035 0.687,-0.102 0.807,-0.145 2.613,-7.162 6.057,-7.718 8.493,-6.906 C -1.399,-7.466 1.735,-5.515 0,0" /></g><g
           transform="translate(679.5576,401.7134)"
           id="g184"><path
             id="path186"
             style="fill:#ff2b1e;fill-opacity:1;fill-rule:nonzero;stroke:none"
             d="M 0,0 C -0.798,-1.125 -1.942,-2.069 -3.396,-2.808 L -7.202,7.289 C -5.356,7.73 -3.804,7.724 -2.578,7.265 -1.178,6.738 -0.234,5.78 0.309,4.337 0.959,2.602 0.863,1.225 0,0 m 10.69,8.338 c -2.145,5.672 -5.778,9.491 -10.798,11.348 -4.937,1.835 -11.054,1.395 -18.178,-1.292 -6.902,-2.606 -11.59,-6.405 -13.934,-11.29 -2.343,-4.901 -2.361,-10.494 -0.051,-16.626 1.088,-2.88 2.341,-5.114 3.816,-6.812 2.817,-3.343 5.323,-5.016 7.475,-5.016 0.98,0 1.885,0.346 2.715,1.037 2.76,2.188 2.185,5.834 -1.681,10.791 -0.045,0.075 -0.321,0.583 -1.331,3.252 -0.914,2.417 -0.909,4.46 0.012,6.248 0.806,1.561 2.205,2.855 4.139,3.84 l 5.224,-13.853 c 2.802,-7.41 6.977,-7.617 9.993,-6.476 5.94,2.242 10.079,5.604 12.3,9.992 2.242,4.436 2.343,9.434 0.299,14.856 z" /></g></g></g></g></svg>